HIERARCHY
ROOT Hips
{
	OFFSET 0.00 0.00 0.00
	CHANNELS 6 Xposition Yposition Zposition Xrotation Yrotation Zrotation
	JOINT Spine
	{
		OFFSET 0.00000 1.15266 1.72900
		CHANNELS 3 Xrotation Yrotation Zrotation
		JOINT Spine1
		{
			OFFSET 0.00000 0.40032 2.27031
			CHANNELS 3 Xrotation Yrotation Zrotation
			JOINT Spine2
			{
				OFFSET 0.00000 0.20092 2.29656
				CHANNELS 3 Xrotation Yrotation Zrotation
				JOINT Spine3
				{
					OFFSET 0.00000 0.00000 2.30533
					CHANNELS 3 Xrotation Yrotation Zrotation
					JOINT Neck
					{
						OFFSET 0.00000 -0.86449 6.05149
						CHANNELS 3 Xrotation Yrotation Zrotation
						JOINT Head
						{
							OFFSET 0.00000 -0.55043 3.12167
							CHANNELS 3 Xrotation Yrotation Zrotation
							End Site
							{
								OFFSET 0.00000 0.00000 3.73175
							}
						}
					}
					JOINT RightShoulder
					{
						OFFSET -0.78828 -1.31380 4.25672
						CHANNELS 3 Xrotation Yrotation Zrotation
						JOINT RightArm
						{
							OFFSET -3.91513 0.00000 0.00000
							CHANNELS 3 Xrotation Yrotation Zrotation
							JOINT RightForeArm
							{
								OFFSET -6.91491 0.00000 0.00000
								CHANNELS 3 Xrotation Yrotation Zrotation
								JOINT RightHand
								{
									OFFSET -6.09622 0.00000 0.00000
									CHANNELS 3 Xrotation Yrotation Zrotation
									JOINT RightHandEnd
									{
										OFFSET -1.74995 0.00000 0.00000
										CHANNELS 3 Xrotation Yrotation Zrotation
										End Site
										{
											OFFSET -1.74995 0.00000 0.00000
										}
									}
									JOINT RightHandThumb1
									{
										OFFSET -0.69998 -1.16663 -0.46665
										CHANNELS 3 Yrotation Xrotation Zrotation
										End Site
										{
											OFFSET -1.69032 -0.45292 0.00000
										}
									}
								}
							}
						}
					}
					JOINT LeftShoulder
					{
						OFFSET 0.78828 -1.31380 4.25672
						CHANNELS 3 Xrotation Yrotation Zrotation
						JOINT LeftArm
						{
							OFFSET 3.91513 0.00000 0.00000
							CHANNELS 3 Xrotation Yrotation Zrotation
							JOINT LeftForeArm
							{
								OFFSET 6.91491 0.00000 0.00000
								CHANNELS 3 Xrotation Yrotation Zrotation
								JOINT LeftHand
								{
									OFFSET 6.09622 0.00000 0.00000
									CHANNELS 3 Xrotation Yrotation Zrotation
									JOINT LeftHandEnd
									{
										OFFSET 1.74995 0.00000 0.00000
										CHANNELS 3 Xrotation Yrotation Zrotation
										End Site
										{
											OFFSET 1.74995 0.00000 0.00000
										}
									}
									JOINT LeftHandThumb1
									{
										OFFSET 0.69998 -1.16663 -0.46665
										CHANNELS 3 Yrotation Xrotation Zrotation
										End Site
										{
											OFFSET 1.69032 -0.45292 0.00000
										}
									}
								}
							}
						}
					}
				}
			}
		}
	}
	JOINT RightUpLeg
	{
		OFFSET -2.33857 0.00000 -0.68318
		CHANNELS 3 Xrotation Yrotation Zrotation
		JOINT RightLeg
		{
			OFFSET 0.00000 0.00000 -10.74496
			CHANNELS 3 Xrotation Yrotation Zrotation
			JOINT RightFoot
			{
				OFFSET 0.00000 0.00000 -10.93085
				CHANNELS 3 Xrotation Yrotation Zrotation
				JOINT RightToeBase
				{
					OFFSET 0.00000 -4.08727 -1.48765
					CHANNELS 3 Xrotation Yrotation Zrotation
					End Site
					{
						OFFSET 0.00000 -1.89187 -0.00000
					}
				}
			}
		}
	}
	JOINT LeftUpLeg
	{
		OFFSET 2.33857 0.00000 -0.68318
		CHANNELS 3 Xrotation Yrotation Zrotation
		JOINT LeftLeg
		{
			OFFSET 0.00000 0.00000 -10.74496
			CHANNELS 3 Xrotation Yrotation Zrotation
			JOINT LeftFoot
			{
				OFFSET 0.00000 0.00000 -10.93085
				CHANNELS 3 Xrotation Yrotation Zrotation
				JOINT LeftToeBase
				{
					OFFSET 0.00000 -4.08727 -1.48765
					CHANNELS 3 Xrotation Yrotation Zrotation
					End Site
					{
						OFFSET 0.00000 -1.89187 -0.00000
					}
				}
			}
		}
	}
}
MOTION
Frames: 7
Frame Time:	0.05
 -1.2344 -0.5247 25.0481 -6.3389 1.5268 158.9231 -0.9467 -0.8818 0.6613 -0.4314 -2.9862 0.0497 0.9160 3.3771 10.6242 0.0771 0.8801 1.5412 -6.2439 3.6810 -11.9512 3.7770 0.7580 -17.8822 -10.8288 5.0991 -9.2866 -4.1143 2.9629 8.3573 0.0000 0.0000 14.0990 -6.3276 1.2965 -11.5775 0.0000 0.0000 0.0000 -0.0000 -0.0000 -0.0000 -9.2830 -2.0240 6.9341 -19.4054 1.9126 -14.5823 -0.0000 0.0000 4.8586 2.9106 7.4251 7.6107 0.0000 0.0000 -0.0000 0.0000 0.0000 -0.0000 -8.3456 -2.7124 -6.1466 2.3003 0.0000 0.0000 -0.5011 0.0225 25.7021 4.7461 0.0000 0.0000 -4.7722 -0.8451 8.3983 0.2919 0.0000 0.0000 -5.3589 2.0117 3.7720 -2.8200 0.0000 -0.0000
 -1.2228 -0.5786 25.0488 -6.3587 1.5831 158.9308 -0.8721 -0.8877 0.6407 -0.4153 -2.9542 0.0530 0.8980 3.3227 10.5908 0.0716 0.8735 1.5347 -6.0857 3.8315 -11.9569 3.7467 0.7900 -17.8370 -10.7323 5.3190 -9.1950 -4.0057 2.7075 8.1318 0.0000 0.0000 14.1090 -6.3637 1.3903 -11.5623 0.0000 0.0000 -0.0000 0.0000 -0.0000 0.0000 -9.2143 -2.2694 6.8489 -19.1910 1.8310 -14.2467 -0.0000 0.0000 4.7368 2.7827 7.3434 7.5619 0.0000 0.0000 0.0000 0.0000 0.0000 0.0000 -8.5631 -2.7275 -6.1406 2.4205 0.0000 0.0000 -0.3966 0.0172 25.6765 4.6020 0.0000 0.0000 -5.0524 -0.8870 8.4969 0.5387 0.0000 0.0000 -5.3795 1.8531 3.6704 -2.6186 0.0000 -0.0000
 -1.2061 -0.6313 25.0483 -6.3441 1.6247 159.0239 -0.7444 -0.9347 0.6160 -0.3825 -2.9054 0.0578 0.8293 3.1958 10.5220 0.0479 0.8811 1.5116 -5.8387 4.0680 -11.9169 3.8781 0.8689 -17.6856 -10.6806 5.5842 -9.0825 -3.8475 2.3846 7.8770 0.0000 0.0000 14.0333 -6.4989 1.1811 -11.4961 -0.0000 0.0000 -0.0000 0.0000 -0.0000 -0.0000 -9.1447 -2.5375 6.8137 -19.1814 1.9401 -14.0205 -0.0000 0.0000 4.6759 2.9291 7.3270 7.4081 0.0000 -0.0000 -0.0000 -0.0000 -0.0000 0.0000 -8.7244 -2.7515 -6.1937 2.5250 0.0000 0.0000 -0.3339 0.0902 25.6164 4.4731 0.0000 0.0000 -5.2844 -0.9323 8.5824 0.7479 0.0000 0.0000 -5.3741 1.7155 3.5139 -2.3572 0.0000 -0.0000
 -1.1863 -0.6681 25.0481 -6.3810 1.6674 159.2605 -0.6820 -0.9667 0.5937 -0.3625 -2.8861 0.0488 0.7615 3.0564 10.3434 0.0288 0.8781 1.4706 -5.6010 4.2700 -11.9212 4.1125 0.8773 -17.5640 -10.6343 5.7332 -8.9967 -3.7015 2.2002 7.7365 0.0000 0.0000 13.9457 -6.6383 0.9366 -11.3392 -0.0000 -0.0000 0.0000 -0.0000 -0.0000 0.0000 -9.1567 -2.8358 6.7557 -19.1291 2.1640 -13.8530 -0.0000 0.0000 4.6753 2.6218 7.5243 7.3455 0.0000 0.0000 0.0000 0.0000 -0.0000 -0.0000 -8.8284 -2.7783 -6.3048 2.5083 0.0000 0.0000 -0.3089 0.2415 25.4777 4.4090 0.0000 0.0000 -5.4426 -0.9674 8.5252 0.7612 0.0000 0.0000 -5.2576 1.8013 3.3621 -2.4220 0.0000 -0.0000
 -1.1606 -0.6915 25.0484 -6.3758 1.7168 159.3981 -0.5903 -1.0144 0.5751 -0.3239 -2.8557 0.0453 0.6578 2.9227 10.1901 0.0126 0.8682 1.4429 -5.2947 4.4526 -11.9823 4.1572 0.9560 -17.4954 -10.6206 5.7817 -8.9339 -3.8455 2.2209 7.7652 0.0000 0.0000 14.0711 -6.6315 0.8752 -11.2194 -0.0000 -0.0000 -0.0000 -0.0000 -0.0000 0.0000 -9.2559 -3.0677 6.6791 -19.0590 2.2328 -13.7326 -0.0000 0.0000 4.6248 2.6602 7.3126 7.2752 0.0000 -0.0000 0.0000 0.0000 0.0000 0.0000 -8.8456 -2.7948 -6.3799 2.4783 0.0000 0.0000 -0.3145 0.3247 25.4211 4.4581 0.0000 0.0000 -5.4887 -0.9857 8.4897 0.7055 0.0000 0.0000 -5.1999 1.6473 3.2742 -2.0637 0.0000 -0.0000
 -1.1271 -0.7123 25.0485 -6.4287 1.7833 159.3552 -0.5245 -1.0681 0.5630 -0.3023 -2.8353 0.0469 0.5700 2.7847 10.1290 -0.0134 0.8462 1.4446 -5.1013 4.7054 -11.9969 4.2044 1.0597 -17.3948 -10.5003 5.8929 -8.8725 -3.9855 2.3636 7.8554 0.0000 0.0000 14.4887 -6.6041 1.1328 -11.0697 0.0000 -0.0000 -0.0000 0.0000 -0.0000 -0.0000 -9.1870 -3.2803 6.6583 -19.0661 2.1783 -13.7475 -0.0000 0.0000 4.6073 2.6574 7.2821 7.1646 0.0000 -0.0000 -0.0000 0.0000 0.0000 0.0000 -8.9725 -2.8589 -6.3690 2.5196 0.0000 0.0000 -0.2881 0.4255 25.4491 4.4601 0.0000 0.0000 -5.6087 -1.0567 8.5192 0.7596 0.0000 0.0000 -5.1562 1.8291 3.3022 -2.1929 0.0000 -0.0000
 -1.0798 -0.7350 25.0484 -6.5622 1.8410 159.3515 -0.5042 -1.1342 0.5517 -0.3051 -2.8055 0.0503 0.4802 2.6908 10.0721 -0.0341 0.8394 1.4385 -5.0016 4.8611 -11.9754 4.3292 1.0638 -17.2757 -10.4331 6.0605 -8.7942 -4.1495 2.4095 8.0070 0.0000 0.0000 14.7029 -6.4246 1.3300 -11.0421 -0.0000 -0.0000 -0.0000 -0.0000 -0.0000 0.0000 -9.0813 -3.6497 6.5204 -19.0136 2.1558 -13.7306 -0.0000 0.0000 4.5042 2.7669 7.1958 6.9993 -0.0000 0.0000 0.0000 -0.0000 0.0000 0.0000 -9.1158 -2.9832 -6.4391 2.4768 0.0000 0.0000 -0.1860 0.4249 25.5401 4.4737 0.0000 0.0000 -5.8029 -1.1977 8.6109 0.8429 0.0000 0.0000 -5.0989 2.2417 3.2372 -2.5338 0.0000 -0.0000
